<?xml version='1.0' encoding='utf-8'?>
<svg xmlns="http://www.w3.org/2000/svg" viewBox="0 0 506 534" width="506" height="534" role="img"><defs>
  <style>
    .mono{font-family:'SFMono-Regular',Consolas,'Liberation Mono',Menlo,'Courier New',monospace}
    .txt,.mut,.pt{font-family:'SFMono-Regular',Consolas,'Liberation Mono',Menlo,'Courier New',monospace}
    .txt{fill:#dfe6ff} .mut{fill:#8b9bd6} .pt{fill:#9aabff;font-size:15px;font-weight:700}
    .name{font-family:Impact,'Haettenschweiler','Arial Narrow Bold','Arial Black',sans-serif;letter-spacing:1px}
  </style>
  <linearGradient id="gName" x1="0" x2="1"><stop offset="0" stop-color="#5b73ff"/><stop offset="1" stop-color="#9aabff"/></linearGradient>
  <filter id="glow" x="-20%" y="-20%" width="140%" height="140%"><feGaussianBlur stdDeviation="2.2" result="b"/><feMerge><feMergeNode in="b"/><feMergeNode in="SourceGraphic"/></feMerge></filter>
  <pattern id="grid" width="24" height="24" patternUnits="userSpaceOnUse"><path d="M24 0H0V24" fill="none" stroke="#3d56d6" stroke-opacity=".12"/></pattern>
  <pattern id="stripe" width="8" height="9" patternUnits="userSpaceOnUse" patternTransform="skewX(-30)"><rect width="4" height="9" fill="#5b73ff"/><rect x="4" width="4" height="9" fill="#9aabff"/></pattern>
</defs>
<rect width="506" height="534" fill="#050b1c"/><g transform="translate(12,12)"><g transform="translate(0,0)"><rect width="482" height="510" rx="4" fill="#071027" stroke="#3d56d6" stroke-opacity=".75"/><text x="16" y="26" class="pt">// VISUAL IDENTITY</text>
    <g stroke="#5b73ff" stroke-opacity=".3" stroke-width="1"><polyline points="0,284 30,268 60,295 90,310 121,305 151,329 181,336 211,306 241,291 271,297 301,278 331,278 362,315 392,323 422,314 452,327 482,326" fill="none"/><polyline points="0,301 30,288 60,314 90,325 121,319 151,345 181,353 211,318 241,308 271,317 301,296 331,295 362,329 392,340 422,328 452,340 482,341" fill="none"/><polyline points="0,321 30,307 60,331 90,341 121,336 151,357 181,362 211,336 241,324 271,334 301,315 331,317 362,344 392,352 422,345 452,355 482,354" fill="none"/><polyline points="0,340 30,326 60,346 90,357 121,352 151,367 181,375 211,353 241,344 271,351 301,335 331,334 362,359 392,366 422,361 452,369 482,366" fill="none"/><polyline points="0,357 30,347 60,366 90,371 121,368 151,384 181,390 211,371 241,363 271,367 301,356 331,354 362,375 392,378 422,373 452,382 482,379" fill="none"/><polyline points="0,376 30,370 60,383 90,387 121,388 151,393 181,399 211,385 241,378 271,380 301,376 331,372 362,391 392,395 422,389 452,394 482,396" fill="none"/><polyline points="0,396 30,388 60,396 90,402 121,403 151,410 181,413 211,403 241,395 271,401 301,391 331,389 362,402 392,406 422,405 452,411 482,410" fill="none"/><line x1="0" y1="284" x2="0" y2="301"/><line x1="30" y1="268" x2="30" y2="288"/><line x1="60" y1="295" x2="60" y2="314"/><line x1="90" y1="310" x2="90" y2="325"/><line x1="121" y1="305" x2="121" y2="319"/><line x1="151" y1="329" x2="151" y2="345"/><line x1="181" y1="336" x2="181" y2="353"/><line x1="211" y1="306" x2="211" y2="318"/><line x1="241" y1="291" x2="241" y2="308"/><line x1="271" y1="297" x2="271" y2="317"/><line x1="301" y1="278" x2="301" y2="296"/><line x1="331" y1="278" x2="331" y2="295"/><line x1="362" y1="315" x2="362" y2="329"/><line x1="392" y1="323" x2="392" y2="340"/><line x1="422" y1="314" x2="422" y2="328"/><line x1="452" y1="327" x2="452" y2="340"/><line x1="482" y1="326" x2="482" y2="341"/><line x1="0" y1="301" x2="0" y2="321"/><line x1="30" y1="288" x2="30" y2="307"/><line x1="60" y1="314" x2="60" y2="331"/><line x1="90" y1="325" x2="90" y2="341"/><line x1="121" y1="319" x2="121" y2="336"/><line x1="151" y1="345" x2="151" y2="357"/><line x1="181" y1="353" x2="181" y2="362"/><line x1="211" y1="318" x2="211" y2="336"/><line x1="241" y1="308" x2="241" y2="324"/><line x1="271" y1="317" x2="271" y2="334"/><line x1="301" y1="296" x2="301" y2="315"/><line x1="331" y1="295" x2="331" y2="317"/><line x1="362" y1="329" x2="362" y2="344"/><line x1="392" y1="340" x2="392" y2="352"/><line x1="422" y1="328" x2="422" y2="345"/><line x1="452" y1="340" x2="452" y2="355"/><line x1="482" y1="341" x2="482" y2="354"/><line x1="0" y1="321" x2="0" y2="340"/><line x1="30" y1="307" x2="30" y2="326"/><line x1="60" y1="331" x2="60" y2="346"/><line x1="90" y1="341" x2="90" y2="357"/><line x1="121" y1="336" x2="121" y2="352"/><line x1="151" y1="357" x2="151" y2="367"/><line x1="181" y1="362" x2="181" y2="375"/><line x1="211" y1="336" x2="211" y2="353"/><line x1="241" y1="324" x2="241" y2="344"/><line x1="271" y1="334" x2="271" y2="351"/><line x1="301" y1="315" x2="301" y2="335"/><line x1="331" y1="317" x2="331" y2="334"/><line x1="362" y1="344" x2="362" y2="359"/><line x1="392" y1="352" x2="392" y2="366"/><line x1="422" y1="345" x2="422" y2="361"/><line x1="452" y1="355" x2="452" y2="369"/><line x1="482" y1="354" x2="482" y2="366"/><line x1="0" y1="340" x2="0" y2="357"/><line x1="30" y1="326" x2="30" y2="347"/><line x1="60" y1="346" x2="60" y2="366"/><line x1="90" y1="357" x2="90" y2="371"/><line x1="121" y1="352" x2="121" y2="368"/><line x1="151" y1="367" x2="151" y2="384"/><line x1="181" y1="375" x2="181" y2="390"/><line x1="211" y1="353" x2="211" y2="371"/><line x1="241" y1="344" x2="241" y2="363"/><line x1="271" y1="351" x2="271" y2="367"/><line x1="301" y1="335" x2="301" y2="356"/><line x1="331" y1="334" x2="331" y2="354"/><line x1="362" y1="359" x2="362" y2="375"/><line x1="392" y1="366" x2="392" y2="378"/><line x1="422" y1="361" x2="422" y2="373"/><line x1="452" y1="369" x2="452" y2="382"/><line x1="482" y1="366" x2="482" y2="379"/><line x1="0" y1="357" x2="0" y2="376"/><line x1="30" y1="347" x2="30" y2="370"/><line x1="60" y1="366" x2="60" y2="383"/><line x1="90" y1="371" x2="90" y2="387"/><line x1="121" y1="368" x2="121" y2="388"/><line x1="151" y1="384" x2="151" y2="393"/><line x1="181" y1="390" x2="181" y2="399"/><line x1="211" y1="371" x2="211" y2="385"/><line x1="241" y1="363" x2="241" y2="378"/><line x1="271" y1="367" x2="271" y2="380"/><line x1="301" y1="356" x2="301" y2="376"/><line x1="331" y1="354" x2="331" y2="372"/><line x1="362" y1="375" x2="362" y2="391"/><line x1="392" y1="378" x2="392" y2="395"/><line x1="422" y1="373" x2="422" y2="389"/><line x1="452" y1="382" x2="452" y2="394"/><line x1="482" y1="379" x2="482" y2="396"/><line x1="0" y1="376" x2="0" y2="396"/><line x1="30" y1="370" x2="30" y2="388"/><line x1="60" y1="383" x2="60" y2="396"/><line x1="90" y1="387" x2="90" y2="402"/><line x1="121" y1="388" x2="121" y2="403"/><line x1="151" y1="393" x2="151" y2="410"/><line x1="181" y1="399" x2="181" y2="413"/><line x1="211" y1="385" x2="211" y2="403"/><line x1="241" y1="378" x2="241" y2="395"/><line x1="271" y1="380" x2="271" y2="401"/><line x1="301" y1="376" x2="301" y2="391"/><line x1="331" y1="372" x2="331" y2="389"/><line x1="362" y1="391" x2="362" y2="402"/><line x1="392" y1="395" x2="392" y2="406"/><line x1="422" y1="389" x2="422" y2="405"/><line x1="452" y1="394" x2="452" y2="411"/><line x1="482" y1="396" x2="482" y2="410"/></g>
    <g stroke="#5b73ff" fill="none" stroke-opacity=".45"><circle cx="241" cy="250" r="198" stroke-dasharray="3 7"/><circle cx="241" cy="250" r="168" stroke-dasharray="40 12 4 12"/></g>
    <rect x="30" y="52" width="60" height="1" fill="#5b73ff" opacity=".5"/>
    <text x="35" y="88" class="txt" font-size="12.5" letter-spacing=".5">BUILD</text><text x="35" y="105" class="txt" font-size="12.5" letter-spacing=".5">LEARN</text><text x="35" y="122" class="txt" font-size="12.5" letter-spacing=".5">EXPERIMENT</text><text x="35" y="139" class="txt" font-size="12.5" letter-spacing=".5">IMPROVE</text><text x="35" y="156" class="txt" font-size="12.5" letter-spacing=".5">SHARE_</text>
    <rect x="378" y="70" width="58" height="42" fill="none" stroke="#3d56d6"/><g stroke="#5b73ff" stroke-opacity=".8"><line x1="386" y1="82" x2="428" y2="82"/><line x1="386" y1="92" x2="414" y2="92"/><line x1="386" y1="102" x2="421" y2="102"/></g>
    <rect x="16" y="228" width="68" height="52" fill="none" stroke="#3d56d6"/><g stroke="#5b73ff" stroke-opacity=".8"><line x1="24" y1="242" x2="70" y2="242"/><line x1="24" y1="254" x2="60" y2="254"/><line x1="24" y1="266" x2="66" y2="266"/></g>
    <g transform="translate(262,250) scale(.82)" filter="url(#glow)">
      <path d="M-12,-30 L-60,-110 L-125,-165 L-120,-95" fill="none" stroke="#5b73ff" stroke-width="9" stroke-linejoin="miter" stroke-linecap="square"/><path d="M12,-30 L60,-110 L125,-165 L120,-95" fill="none" stroke="#5b73ff" stroke-width="9" stroke-linejoin="miter" stroke-linecap="square"/><path d="M-14,-12 L-90,-62 L-170,-78 L-152,-22" fill="none" stroke="#5b73ff" stroke-width="9" stroke-linejoin="miter" stroke-linecap="square"/><path d="M14,-12 L90,-62 L170,-78 L152,-22" fill="none" stroke="#5b73ff" stroke-width="9" stroke-linejoin="miter" stroke-linecap="square"/><path d="M-14,8 L-96,44 L-152,98 L-120,112" fill="none" stroke="#5b73ff" stroke-width="9" stroke-linejoin="miter" stroke-linecap="square"/><path d="M14,8 L96,44 L152,98 L120,112" fill="none" stroke="#5b73ff" stroke-width="9" stroke-linejoin="miter" stroke-linecap="square"/><path d="M-12,30 L-58,100 L-96,168 L-78,188" fill="none" stroke="#5b73ff" stroke-width="9" stroke-linejoin="miter" stroke-linecap="square"/><path d="M12,30 L58,100 L96,168 L78,188" fill="none" stroke="#5b73ff" stroke-width="9" stroke-linejoin="miter" stroke-linecap="square"/>
      <path d="M-12,-30 L-60,-110 L-125,-165 L-120,-95" fill="none" stroke="#071027" stroke-width="4.5" stroke-linejoin="miter" stroke-linecap="square"/><path d="M12,-30 L60,-110 L125,-165 L120,-95" fill="none" stroke="#071027" stroke-width="4.5" stroke-linejoin="miter" stroke-linecap="square"/><path d="M-14,-12 L-90,-62 L-170,-78 L-152,-22" fill="none" stroke="#071027" stroke-width="4.5" stroke-linejoin="miter" stroke-linecap="square"/><path d="M14,-12 L90,-62 L170,-78 L152,-22" fill="none" stroke="#071027" stroke-width="4.5" stroke-linejoin="miter" stroke-linecap="square"/><path d="M-14,8 L-96,44 L-152,98 L-120,112" fill="none" stroke="#071027" stroke-width="4.5" stroke-linejoin="miter" stroke-linecap="square"/><path d="M14,8 L96,44 L152,98 L120,112" fill="none" stroke="#071027" stroke-width="4.5" stroke-linejoin="miter" stroke-linecap="square"/><path d="M-12,30 L-58,100 L-96,168 L-78,188" fill="none" stroke="#071027" stroke-width="4.5" stroke-linejoin="miter" stroke-linecap="square"/><path d="M12,30 L58,100 L96,168 L78,188" fill="none" stroke="#071027" stroke-width="4.5" stroke-linejoin="miter" stroke-linecap="square"/>
      <path d="M0,-38 L-24,6 L0,64 L24,6 Z" fill="#5b73ff"/><path d="M0,-30 L-16,6 L0,52 L16,6 Z" fill="#071027"/>
      <path d="M0,-60 L-13,-40 L0,-30 L13,-40 Z" fill="#5b73ff"/>
      </g>
    <text x="16" y="482" class="mono" font-size="12" fill="#9aabff" letter-spacing=".5">AI  ×  CODE  ×  DATA  ×  A BETTER TOMORROW</text>
    <g fill="#5b73ff"><path d="M430,490 l8,-14 h6 l-8,14z"/><path d="M444,490 l8,-14 h6 l-8,14z"/><path d="M458,490 l8,-14 h6 l-8,14z"/></g></g></g></svg>
